<?xml version="1.0" standalone="no"?>
<!DOCTYPE svg PUBLIC "-//W3C//DTD SVG 20010904//EN"
 "http://www.w3.org/TR/2001/REC-SVG-20010904/DTD/svg10.dtd">
<svg version="1.0" xmlns="http://www.w3.org/2000/svg"
 width="626.000000pt" height="398.000000pt" viewBox="0 0 626.000000 398.000000"
 preserveAspectRatio="xMidYMid meet">

<g transform="translate(0.000000,398.000000) scale(0.100000,-0.100000)"
fill="#000000" stroke="none">
<path d="M2026 3169 c6 -8 46 -59 89 -114 147 -189 160 -204 167 -197 3 4 16
43 27 87 11 44 27 100 36 124 8 24 15 49 15 56 0 8 -47 18 -142 29 -79 10
-156 20 -173 24 -25 4 -28 3 -19 -9z"/>
<path d="M3920 3113 c-57 -19 -56 -18 -36 -47 21 -33 21 -33 -14 -51 -37 -19
-98 -72 -111 -97 -7 -12 6 -7 36 17 53 40 137 68 195 64 21 -2 42 0 45 3 4 3
3 33 -1 67 -7 60 -7 61 -38 61 -17 -1 -51 -8 -76 -17z"/>
<path d="M2050 3085 c19 -19 36 -35 37 -35 2 0 -8 16 -23 35 -14 19 -31 35
-37 35 -6 0 4 -16 23 -35z"/>
<path d="M2370 3080 c-6 -25 -25 -92 -41 -150 l-30 -106 17 -74 c9 -41 19 -85
21 -97 3 -13 10 -23 17 -23 18 1 278 134 278 143 0 7 -74 111 -236 332 -13 18
-15 17 -26 -25z"/>
<path d="M3625 3003 c-59 -60 -85 -124 -85 -213 0 -89 27 -156 85 -215 181
-180 492 -64 513 191 5 73 -12 91 -20 20 -15 -132 -129 -235 -262 -236 -81 0
-129 17 -183 64 -114 100 -126 268 -28 384 39 47 24 51 -20 5z"/>
<path d="M2632 2927 c-42 -7 -61 -15 -58 -23 11 -29 79 -114 86 -107 8 10 50
121 50 134 0 5 -3 8 -7 7 -5 0 -36 -6 -71 -11z"/>
<path d="M2730 2910 c-15 -27 -10 -32 30 -28 l32 3 -25 23 -25 24 -12 -22z"/>
<path d="M4300 2905 c0 -12 18 -15 105 -15 l105 0 0 -55 c0 -42 -3 -55 -15
-55 -8 0 -15 4 -15 10 0 16 -61 42 -86 36 -31 -8 -46 -38 -42 -87 4 -51 41
-79 85 -63 30 10 42 39 24 57 -8 8 -15 6 -24 -7 -21 -28 -59 -12 -55 22 2 17
10 28 21 30 58 11 107 -41 107 -115 0 -32 5 -45 20 -53 20 -10 20 -8 20 135 0
90 4 145 10 145 6 0 10 7 10 15 0 13 -22 15 -135 15 -113 0 -135 -2 -135 -15z"/>
<path d="M4602 2897 c-40 -43 -18 -82 47 -82 26 0 37 -5 39 -17 5 -24 -42 -46
-62 -29 -23 19 -31 -7 -10 -30 25 -28 71 -22 98 14 19 26 19 30 5 55 -10 19
-24 28 -47 30 -38 4 -45 35 -11 52 16 9 26 8 47 -6 47 -31 51 -43 52 -155 0
-104 4 -119 36 -119 2 0 4 63 4 140 l0 140 35 0 35 0 0 -79 c0 -44 3 -86 6
-95 11 -29 42 -18 54 18 10 32 55 84 65 75 2 -3 9 -38 15 -79 10 -72 30 -110
57 -110 20 0 16 23 -7 38 -16 10 -20 23 -20 68 0 30 7 68 16 85 31 61 -25 79
-93 30 -23 -16 -44 -27 -47 -24 -3 4 -6 21 -6 40 l0 33 58 1 c114 3 125 4 129
17 4 9 -34 12 -166 12 -164 0 -171 -1 -171 -20 0 -25 -8 -25 -40 0 -35 27 -91
26 -118 -3z"/>
<path d="M1150 2762 c0 -132 2 -151 15 -146 11 5 13 13 8 28 -7 21 -8 33 -4
91 3 47 -6 165 -13 172 -3 4 -6 -62 -6 -145z"/>
<path d="M1352 2758 c2 -110 6 -152 16 -156 9 -3 12 17 12 77 0 45 3 81 8 81
4 0 31 -36 60 -80 46 -71 72 -97 72 -72 0 5 -25 44 -55 87 -45 65 -52 81 -42
94 6 9 29 38 51 64 21 26 36 50 33 53 -3 3 -29 -26 -58 -65 -30 -39 -57 -71
-61 -71 -5 0 -8 32 -8 70 0 56 -3 70 -15 70 -13 0 -15 -21 -13 -152z"/>
<path d="M1910 2754 c0 -120 3 -155 13 -152 14 5 24 124 19 236 -3 54 -7 72
-18 72 -11 0 -14 -28 -14 -156z"/>
<path d="M3816 2861 c-4 -7 -5 -15 -2 -18 9 -9 19 4 14 18 -4 11 -6 11 -12 0z"/>
<path d="M3845 2830 c-3 -5 -1 -10 4 -10 6 0 11 -7 11 -15 0 -17 16 -20 24 -6
9 14 -4 41 -19 41 -8 0 -17 -4 -20 -10z"/>
<path d="M1258 2778 c17 -19 22 -36 22 -77 0 -29 -5 -62 -11 -74 -10 -21 -9
-21 10 2 28 31 30 121 4 143 -33 27 -48 32 -25 6z"/>
<path d="M1633 2788 c35 -13 48 -55 22 -75 -18 -13 -18 -13 -1 -13 16 0 18 -6
13 -39 -4 -35 5 -61 23 -61 3 0 3 39 0 86 -5 91 -19 115 -64 113 -17 0 -16 -2
7 -11z"/>
<path d="M1790 2796 c0 -2 11 -6 25 -8 13 -3 22 -1 19 3 -5 9 -44 13 -44 5z"/>
<path d="M1970 2789 c-13 -10 -13 -10 0 -6 8 2 25 1 38 -4 20 -8 22 -15 22
-88 0 -44 5 -83 10 -86 6 -4 10 25 10 79 0 64 -4 88 -16 100 -18 19 -43 20
-64 5z"/>
<path d="M1760 2764 c-13 -34 2 -60 47 -79 31 -13 35 -18 31 -45 -5 -37 -1
-39 12 -5 13 35 3 53 -42 76 -35 18 -40 24 -36 50 6 36 1 37 -12 3z"/>
<path d="M2269 2738 c-22 -80 -61 -213 -75 -256 l-13 -43 23 18 c95 73 125
100 126 113 0 18 -39 203 -45 208 -2 2 -9 -16 -16 -40z"/>
<path d="M3845 2760 c-3 -5 1 -10 9 -10 8 0 18 5 21 10 3 6 -1 10 -9 10 -8 0
-18 -4 -21 -10z"/>
<path d="M2590 2720 c-19 -11 -30 -19 -25 -19 6 0 26 8 45 19 19 11 31 19 25
19 -5 0 -26 -8 -45 -19z"/>
<path d="M1577 2682 c-35 -39 -14 -83 38 -81 21 1 24 3 10 6 -49 12 -60 51
-23 77 16 12 18 16 7 16 -9 0 -23 -8 -32 -18z"/>
<path d="M1755 2610 c3 -5 14 -10 23 -10 15 0 15 2 2 10 -20 13 -33 13 -25 0z"/>
<path d="M4805 1926 c-268 -67 -387 -354 -241 -579 57 -89 129 -177 144 -177
6 0 11 -3 11 -7 -5 -29 4 -32 109 -31 65 0 97 4 82 8 -22 7 -20 8 14 9 22 1
36 4 32 8 -4 4 10 12 31 18 36 11 34 12 -42 13 -67 1 -89 6 -142 32 -229 113
-228 438 2 551 157 77 337 12 420 -150 9 -18 19 -67 22 -109 5 -61 8 -71 15
-51 14 36 20 189 8 189 -5 0 -10 9 -10 21 0 11 -21 51 -46 88 -89 128 -270
202 -409 167z"/>
<path d="M3650 1800 c-41 -41 -14 -110 43 -110 32 0 67 32 67 60 0 27 -43 70
-70 70 -11 0 -29 -9 -40 -20z"/>
<path d="M1040 1395 l0 -395 600 0 600 0 0 395 0 395 -600 0 -600 0 0 -395z
m930 348 c0 -5 -23 -78 -50 -163 -28 -85 -50 -156 -50 -157 0 -2 36 -3 81 -3
60 0 80 3 77 13 -6 16 -46 21 -62 8 -15 -12 -56 12 -56 33 0 22 47 46 90 46
33 0 48 -6 71 -29 16 -16 29 -39 29 -50 0 -12 6 -21 15 -21 10 0 15 -11 15
-35 0 -31 -3 -35 -26 -35 l-27 0 27 -21 c34 -27 36 -79 4 -109 -22 -20 -22
-22 -5 -34 9 -7 17 -24 17 -37 0 -17 -3 -20 -11 -12 -7 7 -20 8 -33 4 -11 -5
-37 -6 -56 -4 -19 3 -46 5 -60 5 -14 -1 -43 -1 -65 -1 -22 0 -62 0 -90 0 -27
-1 -75 -1 -105 -2 -80 -2 -82 -1 -78 24 3 20 9 22 68 23 36 0 70 -3 77 -8 7
-5 14 -5 18 2 4 7 51 10 128 9 150 -1 172 3 52 10 l-90 6 -6 105 c-3 58 -6 99
-7 93 -4 -23 -18 -14 -52 33 l-33 46 -17 -22 c-15 -20 -18 -21 -23 -5 -16 40
-7 79 26 114 20 23 23 29 7 15 -14 -11 -38 -28 -54 -38 -28 -18 -29 -18 -82
10 -29 15 -51 31 -49 34 7 12 350 158 373 159 6 1 12 -2 12 -6z m-290 -238 c0
-8 -4 -15 -10 -15 -5 0 -10 -11 -10 -25 0 -38 -39 -35 -41 3 l-2 27 -4 -27
c-5 -31 -1 -30 -118 -28 -44 1 -100 1 -125 0 -135 -7 -125 -10 -128 36 l-3 42
220 1 c191 1 221 -1 221 -14z m-272 -194 l-3 -106 -27 -3 c-18 -2 -28 -9 -28
-19 0 -22 -29 -53 -49 -53 -22 1 -51 24 -51 42 0 17 -24 41 -32 33 -3 -3 -19
10 -37 30 -43 49 -43 101 0 149 30 34 33 35 112 38 126 5 118 13 115 -111z
m112 81 c-29 -39 -35 -90 -16 -136 12 -29 13 -42 5 -52 -12 -15 15 -24 66 -21
24 2 31 -2 33 -20 3 -19 -2 -21 -58 -25 -34 -1 -65 1 -71 7 -6 5 -9 5 -9 -3 0
-8 -16 -10 -47 -7 -27 2 -51 4 -55 5 -5 0 -8 11 -8 25 0 23 4 25 44 25 25 0
48 -4 51 -10 3 -5 11 -10 17 -10 6 0 2 10 -9 23 -11 12 -26 32 -32 44 -15 30
-14 107 3 148 14 33 18 35 61 35 l46 0 -21 -28z m305 -3 c30 -26 35 -38 35
-73 0 -43 -22 -86 -44 -86 -7 0 -21 9 -31 20 -14 16 -16 23 -7 32 16 16 15 43
-3 58 -13 11 -15 3 -15 -64 l0 -76 -92 0 c-84 0 -96 2 -121 24 -52 45 -54 121
-5 173 20 21 29 23 134 23 112 0 114 0 149 -31z"/>
<path d="M1950 1310 l0 -40 58 2 c49 1 51 2 15 5 l-43 4 15 35 14 34 -30 0
c-27 0 -29 -2 -29 -40z"/>
<path d="M1350 1480 c0 -5 5 -10 10 -10 6 0 10 5 10 10 0 6 -4 10 -10 10 -5 0
-10 -4 -10 -10z"/>
<path d="M1430 1480 c0 -5 9 -10 20 -10 11 0 20 5 20 10 0 6 -9 10 -20 10 -11
0 -20 -4 -20 -10z"/>
<path d="M1232 1338 c-30 -30 2 -68 59 -68 39 0 39 0 39 40 l0 40 -43 0 c-24
0 -48 -5 -55 -12z"/>
<path d="M1581 1332 c-18 -33 13 -62 65 -62 l44 0 0 40 0 40 -50 0 c-38 0 -52
-4 -59 -18z"/>
<path d="M3689 1632 l-47 -3 -4 -55 c-5 -62 -38 -106 -94 -124 -31 -11 -32
-11 -17 -40 11 -23 12 -34 3 -50 -7 -12 -9 -24 -7 -27 9 -9 107 24 143 49 43
29 83 108 91 180 6 65 -3 74 -68 70z"/>
<path d="M4725 1560 c-3 -11 -10 -20 -14 -20 -10 0 -8 -121 2 -137 5 -7 21
-13 38 -13 22 0 29 5 29 20 0 11 -4 20 -10 20 -5 0 -10 14 -10 31 0 22 5 32
20 36 20 5 29 43 10 43 -5 0 -10 9 -10 20 0 15 -7 20 -24 20 -16 0 -27 -7 -31
-20z"/>
<path d="M5292 1560 c0 -14 2 -19 5 -12 2 6 2 18 0 25 -3 6 -5 1 -5 -13z"/>
<path d="M4862 1533 c-36 -14 -55 -109 -26 -137 13 -14 19 -14 49 -2 24 10 36
11 44 3 8 -8 11 -8 11 1 0 6 -11 14 -25 18 -33 8 -49 37 -35 64 6 11 20 20 30
20 23 0 26 10 8 28 -12 12 -33 14 -56 5z"/>
<path d="M3192 1285 c3 -16 12 -20 43 -20 30 0 41 -4 43 -17 3 -15 -4 -18 -47
-18 -40 0 -51 -3 -51 -16 0 -11 8 -15 28 -12 24 3 28 -1 32 -32 4 -31 9 -35
38 -38 17 -2 32 -7 32 -11 0 -15 -25 -31 -51 -31 -32 0 -47 16 -55 58 -9 44
-24 40 -24 -6 0 -51 29 -82 76 -82 42 0 84 37 84 75 0 22 -4 25 -35 25 -28 0
-35 4 -35 19 0 15 8 21 32 23 32 3 53 28 24 28 -9 0 -16 8 -16 19 0 29 -26 44
-61 37 -19 -4 -38 -1 -47 6 -12 10 -14 9 -10 -7z"/>
<path d="M3371 1216 c-10 -11 -10 -20 -1 -36 7 -12 9 -37 6 -55 -9 -46 13 -51
63 -14 23 16 45 29 51 29 5 0 10 -18 10 -40 0 -29 4 -40 15 -40 12 0 15 14 15
70 0 63 2 70 20 70 18 0 20 -7 20 -70 0 -56 3 -70 15 -70 12 0 15 16 15 85 l0
85 -49 0 c-34 0 -51 -5 -54 -15 -5 -12 -10 -12 -34 0 -36 19 -77 19 -92 1z
m93 -29 c17 -13 16 -15 -14 -40 -17 -15 -35 -27 -39 -27 -5 0 -8 18 -8 40 0
34 3 40 21 40 12 0 30 -6 40 -13z"/>
<path d="M3630 1201 c0 -20 6 -30 20 -34 11 -3 20 -10 20 -15 0 -6 -9 -14 -20
-17 -14 -4 -20 -15 -20 -34 0 -28 2 -28 67 -34 38 -3 71 -3 75 0 5 2 8 40 8
84 l0 79 -75 0 -75 0 0 -29z m118 -53 l-3 -53 -35 3 c-45 5 -58 17 -31 31 27
15 27 35 -1 54 -22 15 -22 16 25 16 l48 1 -3 -52z"/>
<path d="M3682 1023 c2 -10 10 -18 18 -18 8 0 16 8 18 18 2 12 -3 17 -18 17
-15 0 -20 -5 -18 -17z"/>
</g>
</svg>
